inDegrees=yes
name=ik_S47_A11_T02
DataType=double
version=3
OpenSimVersion=4.3-2021-08-27-4bc7ad9
endheader
time	pelvis_tilt	pelvis_list	pelvis_rotation	pelvis_tx	pelvis_ty	pelvis_tz	hip_flexion_r	hip_adduction_r	hip_rotation_r	knee_angle_r	knee_angle_r_beta	ankle_angle_r	subtalar_angle_r	mtp_angle_r	hip_flexion_l	hip_adduction_l	hip_rotation_l	knee_angle_l	knee_angle_l_beta	ankle_angle_l	subtalar_angle_l	mtp_angle_l	lumbar_extension	lumbar_bending	lumbar_rotation	arm_flex_r	arm_add_r	arm_rot_r	elbow_flex_r	pro_sup_r	wrist_flex_r	wrist_dev_r	arm_flex_l	arm_add_l	arm_rot_l	elbow_flex_l	pro_sup_l	wrist_flex_l	wrist_dev_l
6.859999999999942	1.491400333869151	-2.13950532933121	49.00269249372324	0	0.9399999999999999	0	33.96833172489631	-9.638592997506166	-9.11952416550425	39.71476193910995	0.6931533574831963	0	0	0	33.96833172489631	-9.638592997506166	-9.11952416550425	39.71476193910995	0.6931533574831963	0	0	0	-0.2210526673491994	-2.417406884368882	14.95481082901455	111.2022754033022	12.7882687171996	29.49536647486618	9.047152991823907	34.96613226376229	0	0	16.99054692189054	-9.676006889444125	-6.771763174083364	8.05386016473337	125.5956806161637	0	0
6.879999999999941	1.476143405463912	-2.151594226223683	48.97608781391612	0	0.9399999999999999	0	33.97193129885507	-9.63899341685323	-9.120151504852997	39.71824090206384	0.6932140768412967	0	0	0	33.97193129885507	-9.63899341685323	-9.120151504852997	39.71824090206384	0.6932140768412967	0	0	0	-0.2403239367883452	-2.413841362501713	14.95268990377446	111.1969686982088	12.84249577402544	29.65439243684184	9.215429224065822	34.9281672163384	0	0	16.94369222660643	-9.672706763874677	-6.810441316803153	8.097714131807757	125.7394414845847	0	0
6.899999999999941	1.467841989635074	-2.151886739290481	48.93632961397392	0	0.9399999999999999	0	33.97427283925754	-9.639254717236149	-9.120560485968863	39.72049599418573	0.6932534356237593	0	0	0	33.97427283925754	-9.639254717236149	-9.120560485968863	39.72049599418573	0.6932534356237593	0	0	0	-0.2458935654254382	-2.408017711061681	14.95834293857504	111.2007325389884	12.87629603556804	29.66998003060499	9.247712029000189	35.17981123240857	0	0	16.87727842326895	-9.648010137423286	-6.713835776198157	8.102691645803572	125.7751100811963	0	0
6.91999999999994	1.441020372014782	-2.158154748032496	48.8165512364962	0	0.9399999999999999	0	33.97727835946012	-9.639591008063952	-9.121086397668472	39.72338220210617	0.6933038094548682	0	0	0	33.97727835946012	-9.639591008063952	-9.121086397668472	39.72338220210617	0.6933038094548682	0	0	0	-0.2689132890856751	-2.391379555103293	14.93947704770052	111.1653035800602	12.93525502765686	30.09139764359254	9.307213064942188	35.2038636894101	0	0	16.81698223853823	-9.607334502203935	-6.672223525881925	8.106001462803107	125.7762179454018	0	0
6.93999999999994	1.416653241812754	-2.166578573164633	48.69077719986469	0	0.9399999999999999	0	33.98132858029223	-9.640044694750104	-9.121795717580486	39.72726518927698	0.6933715803658116	0	0	0	33.98132858029223	-9.640044694750104	-9.121795717580486	39.72726518927698	0.6933715803658116	0	0	0	-0.2920153992528243	-2.377993887167647	14.91742270881314	111.18174211563	12.90859959821415	30.53245957852559	9.361367743558574	34.95040509155926	0	0	16.76393606070868	-9.555078436656462	-6.628853226608092	8.113885987533918	125.7928506831805	0	0
6.95999999999994	1.411030737320909	-2.167819455300475	48.63560691005981	0	0.9399999999999999	0	33.98206477330412	-9.640125743340782	-9.121923216142848	39.72798194159904	0.6933840900537528	0	0	0	33.98206477330412	-9.640125743340782	-9.121923216142848	39.72798194159904	0.6933840900537528	0	0	0	-0.2969505978920982	-2.374243228687148	14.90689512322594	111.2152247712739	12.97119995269104	30.53190422516953	9.360441072988898	34.99265855682413	0	0	16.72505778408201	-9.523475865374063	-6.520238249608167	8.113860610777492	125.8261770590106	0	0
6.979999999999939	1.391078242457723	-2.165609636349756	48.54364055620212	0	0.9399999999999999	0	33.98368883349362	-9.640306926744437	-9.12220692349231	39.72954388970632	0.6934113511909702	0	0	0	33.98368883349362	-9.640306926744437	-9.12220692349231	39.72954388970632	0.6934113511909702	0	0	0	-0.3090798948334452	-2.357158384333391	14.88667741272271	111.3204207782273	12.8604570612613	30.65211128954912	9.338783564245777	35.11859125246654	0	0	16.71311012617016	-9.460997172611515	-6.469982365265768	8.118727716772295	125.8605945073099	0	0
6.999999999999939	1.361902376956054	-2.174073145318995	48.44533636080865	0	0.9399999999999999	0	33.98651200943034	-9.640622615872626	-9.122700889467398	39.73225219377831	0.6934586200141716	0	0	0	33.98651200943034	-9.640622615872626	-9.122700889467398	39.73225219377831	0.6934586200141716	0	0	0	-0.3354944966995325	-2.340154455105854	14.86243679567725	111.3816212050168	12.82278718394945	30.85179867041116	9.304322044979623	35.32142351510699	0	0	16.73791521609173	-9.380990998636154	-6.418881981165096	8.137076045870009	125.871246440418	0	0
7.019999999999938	1.327799657665099	-2.176910722323679	48.32799597700549	0	0.9399999999999999	0	33.98970687132758	-9.640979664321117	-9.123259738921853	39.73531715244991	0.6935121136344286	0	0	0	33.98970687132758	-9.640979664321117	-9.123259738921853	39.73531715244991	0.6935121136344286	0	0	0	-0.3612744537139596	-2.315408030101268	14.82854095283187	111.3869568953443	12.77877655369461	31.16003278957951	9.430667072244484	35.03110192730931	0	0	16.77678956594202	-9.304872815083108	-6.410906722033094	8.167946974007458	125.8638210063578	0	0
7.039999999999938	1.311067347827619	-2.176805667357531	48.18769884892568	0	0.9399999999999999	0	33.99165934527671	-9.641197427424066	-9.123600854137592	39.73719282465784	0.693544850290145	0	0	0	33.99165934527671	-9.641197427424066	-9.123600854137592	39.73719282465784	0.693544850290145	0	0	0	-0.3733857704249303	-2.301660033104842	14.79277415313811	111.3756567278974	12.69495060508483	31.42414427727128	9.438346200971264	35.12662946237322	0	0	16.82673635201191	-9.232138585931832	-6.247740715503283	8.150294780845851	125.752700624096	0	0
7.059999999999937	1.293075886424066	-2.17516837500514	48.11706455803644	0	0.9399999999999999	0	33.9945968893494	-9.641524737752826	-9.124113791491604	39.74001609927317	0.6935941257278705	0	0	0	33.9945968893494	-9.641524737752826	-9.124113791491604	39.74001609927317	0.6935941257278705	0	0	0	-0.3839211079677929	-2.287671347062964	14.8059803026805	111.3477570496674	12.46774232372154	31.68121391929895	9.585653566910965	35.29398551442537	0	0	16.84368448856755	-9.202969920705819	-6.291298656555998	8.131283973765042	125.6887803706809	0	0
7.079999999999937	1.250289103489319	-2.165339501414569	47.9691785046158	0	0.9399999999999999	0	33.99754521468438	-9.641853613811973	-9.124629037404668	39.74284538256137	0.6936435060367213	0	0	0	33.99754521468438	-9.641853613811973	-9.124629037404668	39.74284538256137	0.6936435060367213	0	0	0	-0.4059882300838606	-2.248594040791959	14.78551197736347	111.3030955776028	12.28817398071545	32.0146221654506	9.717225031307702	35.81299885358047	0	0	16.8960842517978	-9.094723651258358	-6.214569363111952	8.142366460785285	125.6388536884805	0	0
